<mxfile host="Electron" modified="2024-02-19T20:46:57.091Z" agent="Mozilla/5.0 (Windows NT 10.0; Win64; x64) AppleWebKit/537.36 (KHTML, like Gecko) draw.io/23.1.5 Chrome/120.0.6099.109 Electron/28.1.0 Safari/537.36" etag="ikKz37z-XieqokQ9wUw2" version="23.1.5" type="device">
  <diagram name="第 1 页" id="-PWBbvEQKRFpdX3cdJ4J">
    <mxGraphModel dx="989" dy="577" grid="1" gridSize="10" guides="1" tooltips="1" connect="1" arrows="1" fold="1" page="1" pageScale="1" pageWidth="827" pageHeight="1169" math="0" shadow="0">
      <root>
        <mxCell id="0" />
        <mxCell id="1" parent="0" />
        <mxCell id="OTL51iOK556OMJYErmxO-3" value="" style="edgeStyle=orthogonalEdgeStyle;rounded=0;orthogonalLoop=1;jettySize=auto;html=1;" edge="1" parent="1" source="OTL51iOK556OMJYErmxO-1" target="OTL51iOK556OMJYErmxO-2">
          <mxGeometry relative="1" as="geometry" />
        </mxCell>
        <mxCell id="OTL51iOK556OMJYErmxO-1" value="&lt;b&gt;Speech Input&lt;/b&gt;" style="rounded=1;whiteSpace=wrap;html=1;fillColor=#d5e8d4;strokeColor=#82b366;" vertex="1" parent="1">
          <mxGeometry x="150" y="280" width="120" height="60" as="geometry" />
        </mxCell>
        <mxCell id="OTL51iOK556OMJYErmxO-5" value="" style="edgeStyle=orthogonalEdgeStyle;rounded=0;orthogonalLoop=1;jettySize=auto;html=1;" edge="1" parent="1" source="OTL51iOK556OMJYErmxO-2" target="OTL51iOK556OMJYErmxO-4">
          <mxGeometry relative="1" as="geometry" />
        </mxCell>
        <mxCell id="OTL51iOK556OMJYErmxO-2" value="&lt;div&gt;&lt;b&gt;Speech Recognition Engine&lt;/b&gt;&lt;/div&gt;&lt;div&gt;&lt;b&gt;Speech to Text&lt;/b&gt;&lt;/div&gt;" style="rounded=1;whiteSpace=wrap;html=1;fillColor=#d5e8d4;strokeColor=#82b366;" vertex="1" parent="1">
          <mxGeometry x="150" y="410" width="120" height="60" as="geometry" />
        </mxCell>
        <mxCell id="OTL51iOK556OMJYErmxO-8" value="" style="edgeStyle=orthogonalEdgeStyle;rounded=0;orthogonalLoop=1;jettySize=auto;html=1;entryX=0;entryY=0.5;entryDx=0;entryDy=0;exitX=0.5;exitY=1;exitDx=0;exitDy=0;" edge="1" parent="1" source="OTL51iOK556OMJYErmxO-4" target="OTL51iOK556OMJYErmxO-7">
          <mxGeometry relative="1" as="geometry" />
        </mxCell>
        <mxCell id="OTL51iOK556OMJYErmxO-4" value="&lt;b&gt;Langchain&lt;br&gt;Linguistic Feature Engineering&lt;br&gt;(Prompt)&lt;/b&gt;" style="whiteSpace=wrap;html=1;rounded=1;fillColor=#ffe6cc;strokeColor=#d79b00;" vertex="1" parent="1">
          <mxGeometry x="150" y="550" width="120" height="60" as="geometry" />
        </mxCell>
        <mxCell id="OTL51iOK556OMJYErmxO-35" style="edgeStyle=orthogonalEdgeStyle;rounded=0;orthogonalLoop=1;jettySize=auto;html=1;exitX=0.85;exitY=0.95;exitDx=0;exitDy=0;exitPerimeter=0;" edge="1" parent="1" source="OTL51iOK556OMJYErmxO-6" target="OTL51iOK556OMJYErmxO-27">
          <mxGeometry relative="1" as="geometry" />
        </mxCell>
        <mxCell id="OTL51iOK556OMJYErmxO-6" value="&lt;b&gt;Product Information Database&lt;/b&gt;" style="shape=datastore;whiteSpace=wrap;html=1;fillColor=#e1d5e7;strokeColor=#9673a6;" vertex="1" parent="1">
          <mxGeometry x="385" y="390" width="90" height="80" as="geometry" />
        </mxCell>
        <mxCell id="OTL51iOK556OMJYErmxO-21" style="edgeStyle=orthogonalEdgeStyle;rounded=0;orthogonalLoop=1;jettySize=auto;html=1;entryX=0.5;entryY=1;entryDx=0;entryDy=0;" edge="1" parent="1" source="OTL51iOK556OMJYErmxO-7" target="OTL51iOK556OMJYErmxO-9">
          <mxGeometry relative="1" as="geometry" />
        </mxCell>
        <mxCell id="OTL51iOK556OMJYErmxO-33" style="edgeStyle=orthogonalEdgeStyle;rounded=0;orthogonalLoop=1;jettySize=auto;html=1;entryX=0.5;entryY=1;entryDx=0;entryDy=0;exitX=0.25;exitY=0;exitDx=0;exitDy=0;" edge="1" parent="1" source="OTL51iOK556OMJYErmxO-7" target="OTL51iOK556OMJYErmxO-15">
          <mxGeometry relative="1" as="geometry" />
        </mxCell>
        <mxCell id="OTL51iOK556OMJYErmxO-7" value="&lt;b&gt;Langchain &lt;br&gt;LLama 2&amp;nbsp;LLM&lt;/b&gt;" style="whiteSpace=wrap;html=1;rounded=1;fillColor=#ffe6cc;strokeColor=#d79b00;" vertex="1" parent="1">
          <mxGeometry x="370" y="670" width="120" height="60" as="geometry" />
        </mxCell>
        <mxCell id="OTL51iOK556OMJYErmxO-24" value="" style="edgeStyle=orthogonalEdgeStyle;rounded=0;orthogonalLoop=1;jettySize=auto;html=1;" edge="1" parent="1" source="OTL51iOK556OMJYErmxO-9" target="OTL51iOK556OMJYErmxO-23">
          <mxGeometry relative="1" as="geometry" />
        </mxCell>
        <mxCell id="OTL51iOK556OMJYErmxO-9" value="&lt;b&gt;Langchain&lt;br&gt;Product Text Generation Engineering&lt;/b&gt;" style="whiteSpace=wrap;html=1;rounded=1;fillColor=#ffe6cc;strokeColor=#d79b00;" vertex="1" parent="1">
          <mxGeometry x="590" y="550" width="120" height="60" as="geometry" />
        </mxCell>
        <mxCell id="OTL51iOK556OMJYErmxO-34" style="edgeStyle=orthogonalEdgeStyle;rounded=0;orthogonalLoop=1;jettySize=auto;html=1;entryX=0.15;entryY=0.95;entryDx=0;entryDy=0;entryPerimeter=0;" edge="1" parent="1" source="OTL51iOK556OMJYErmxO-15" target="OTL51iOK556OMJYErmxO-6">
          <mxGeometry relative="1" as="geometry" />
        </mxCell>
        <mxCell id="OTL51iOK556OMJYErmxO-15" value="&lt;b&gt;Search Matching Engineering&lt;/b&gt;" style="whiteSpace=wrap;html=1;rounded=1;fillColor=#ffe6cc;strokeColor=#d79b00;" vertex="1" parent="1">
          <mxGeometry x="294" y="550" width="120" height="60" as="geometry" />
        </mxCell>
        <mxCell id="OTL51iOK556OMJYErmxO-26" value="" style="edgeStyle=orthogonalEdgeStyle;rounded=0;orthogonalLoop=1;jettySize=auto;html=1;" edge="1" parent="1" source="OTL51iOK556OMJYErmxO-23" target="OTL51iOK556OMJYErmxO-25">
          <mxGeometry relative="1" as="geometry" />
        </mxCell>
        <mxCell id="OTL51iOK556OMJYErmxO-23" value="&lt;div&gt;&lt;b&gt;Speech Recognition Engine&lt;/b&gt;&lt;/div&gt;&lt;div&gt;&lt;b&gt;Text-to-speech&lt;/b&gt;&lt;/div&gt;" style="whiteSpace=wrap;html=1;rounded=1;fillColor=#d5e8d4;strokeColor=#82b366;" vertex="1" parent="1">
          <mxGeometry x="590" y="410" width="120" height="60" as="geometry" />
        </mxCell>
        <mxCell id="OTL51iOK556OMJYErmxO-25" value="&lt;b&gt;Product introduction text, pictures, voice, product features&lt;/b&gt;" style="whiteSpace=wrap;html=1;rounded=1;fillColor=#d5e8d4;strokeColor=#82b366;" vertex="1" parent="1">
          <mxGeometry x="590" y="280" width="120" height="60" as="geometry" />
        </mxCell>
        <mxCell id="OTL51iOK556OMJYErmxO-36" style="edgeStyle=orthogonalEdgeStyle;rounded=0;orthogonalLoop=1;jettySize=auto;html=1;entryX=0.75;entryY=0;entryDx=0;entryDy=0;" edge="1" parent="1" source="OTL51iOK556OMJYErmxO-27" target="OTL51iOK556OMJYErmxO-7">
          <mxGeometry relative="1" as="geometry" />
        </mxCell>
        <mxCell id="OTL51iOK556OMJYErmxO-27" value="&lt;b&gt;Langchain&lt;br&gt;Product Feature Engineering&lt;br&gt;(Prompt)&lt;/b&gt;" style="whiteSpace=wrap;html=1;fillColor=#ffe6cc;strokeColor=#d79b00;rounded=1;" vertex="1" parent="1">
          <mxGeometry x="447" y="550" width="120" height="60" as="geometry" />
        </mxCell>
        <mxCell id="OTL51iOK556OMJYErmxO-38" value="Backend and Algorithms" style="swimlane;horizontal=0;whiteSpace=wrap;html=1;fillColor=#f8cecc;strokeColor=#b85450;" vertex="1" parent="1">
          <mxGeometry x="100" y="500" width="630" height="240" as="geometry" />
        </mxCell>
        <mxCell id="OTL51iOK556OMJYErmxO-39" value="Front-end" style="swimlane;horizontal=0;whiteSpace=wrap;html=1;fillColor=#f8cecc;strokeColor=#b85450;" vertex="1" parent="1">
          <mxGeometry x="100" y="250" width="630" height="240" as="geometry" />
        </mxCell>
      </root>
    </mxGraphModel>
  </diagram>
</mxfile>
